<?xml version="1.0" encoding="utf-8"?>
<!-- Generator: Adobe Illustrator 16.0.3, SVG Export Plug-In . SVG Version: 6.00 Build 0)  -->
<!DOCTYPE svg PUBLIC "-//W3C//DTD SVG 1.1//EN" "http://www.w3.org/Graphics/SVG/1.1/DTD/svg11.dtd">
<svg version="1.1" id="Capa_1" xmlns="http://www.w3.org/2000/svg" xmlns:xlink="http://www.w3.org/1999/xlink" x="0px" y="0px"
	 width="16px" height="16px" viewBox="0 0 16 16" enable-background="new 0 0 16 16" xml:space="preserve">
<g>
	<path fill="#1D1D1B" d="M16,8.5v-1h-1.525c-0.063-0.82-0.279-1.596-0.619-2.303l1.322-0.764l-0.5-0.867l-1.319,0.762
		c-0.454-0.66-1.026-1.232-1.688-1.687l0.762-1.319l-0.865-0.5l-0.764,1.322C10.097,1.805,9.32,1.588,8.5,1.525V0h-1v1.525
		C6.68,1.588,5.903,1.805,5.196,2.145L4.433,0.822l-0.865,0.5l0.762,1.319C3.668,3.096,3.096,3.668,2.642,4.328L1.322,3.566
		l-0.5,0.867l1.322,0.764c-0.34,0.708-0.557,1.483-0.619,2.305L0,7.5v1l1.525,0.002c0.063,0.819,0.279,1.596,0.62,2.303
		l-1.323,0.762l0.5,0.867l1.319-0.762c0.454,0.661,1.027,1.233,1.688,1.688l-0.762,1.32l0.865,0.5l0.765-1.324
		c0.707,0.34,1.482,0.557,2.303,0.619V16h1v-1.525c0.82-0.063,1.596-0.279,2.303-0.619l0.765,1.324l0.865-0.5l-0.762-1.32
		c0.66-0.454,1.233-1.027,1.688-1.688l1.319,0.763l0.5-0.867l-1.322-0.764c0.34-0.707,0.557-1.483,0.619-2.303H16z M8,13.5
		c-3.032,0-5.5-2.467-5.5-5.5S4.968,2.5,8,2.5s5.5,2.467,5.5,5.5S11.032,13.5,8,13.5z"/>
	<path fill="#1D1D1B" d="M8,5.625C6.689,5.625,5.624,6.689,5.624,8S6.689,10.377,8,10.377S10.376,9.311,10.376,8
		S9.311,5.625,8,5.625z M8,9.377C7.241,9.377,6.624,8.76,6.624,8c0-0.758,0.617-1.375,1.376-1.375S9.376,7.242,9.376,8
		C9.376,8.76,8.759,9.377,8,9.377z"/>
</g>
</svg>
