<?xml version="1.0" encoding="utf-8"?>
<!-- Generator: Adobe Illustrator 16.0.3, SVG Export Plug-In . SVG Version: 6.00 Build 0)  -->
<!DOCTYPE svg PUBLIC "-//W3C//DTD SVG 1.1//EN" "http://www.w3.org/Graphics/SVG/1.1/DTD/svg11.dtd">
<svg version="1.1" id="Capa_1" xmlns="http://www.w3.org/2000/svg" xmlns:xlink="http://www.w3.org/1999/xlink" x="0px" y="0px"
	 width="16px" height="16px" viewBox="0 0 16 16" enable-background="new 0 0 16 16" xml:space="preserve">
<g>
	<path fill="#1D1D1B" d="M15.924,13.734l-7.5-12C8.333,1.589,8.173,1.5,8,1.5S7.667,1.589,7.576,1.734l-7.501,12
		c-0.097,0.154-0.102,0.35-0.014,0.508C0.149,14.401,0.317,14.5,0.499,14.5H15.5c0.182,0,0.349-0.099,0.438-0.258
		C16.025,14.084,16.021,13.889,15.924,13.734z M1.401,13.5L8,2.943L14.598,13.5H1.401z"/>
	<rect x="7.5" y="5.971" fill="#1D1D1B" width="1" height="4.061"/>
	<rect x="7.5" y="11.031" fill="#1D1D1B" width="1" height="1"/>
</g>
</svg>
