<?xml version="1.0" encoding="utf-8"?>
<!-- Generator: Adobe Illustrator 16.0.3, SVG Export Plug-In . SVG Version: 6.00 Build 0)  -->
<!DOCTYPE svg PUBLIC "-//W3C//DTD SVG 1.1//EN" "http://www.w3.org/Graphics/SVG/1.1/DTD/svg11.dtd">
<svg version="1.1" id="Capa_1" xmlns="http://www.w3.org/2000/svg" xmlns:xlink="http://www.w3.org/1999/xlink" x="0px" y="0px"
	 width="16px" height="16px" viewBox="0 0 16 16" enable-background="new 0 0 16 16" xml:space="preserve">
<path fill="#1D1D1B" d="M10.266,7.832c1.188-0.755,1.984-2.074,1.984-3.582C12.25,1.907,10.344,0,8,0S3.75,1.907,3.75,4.25
	c0,1.508,0.795,2.827,1.984,3.582c-0.406,0.12-0.795,0.275-1.171,0.455C3.307,7.278,2.5,5.732,2.5,4h-1
	c0,1.904,0.828,3.613,2.137,4.804C1.45,10.233,0,12.698,0,15.5C0,15.776,0.224,16,0.5,16h15c0.276,0,0.5-0.224,0.5-0.5
	C16,11.876,13.576,8.813,10.266,7.832z M4.75,4.25C4.75,2.458,6.208,1,8,1s3.25,1.458,3.25,3.25S9.792,7.5,8,7.5
	S4.75,6.042,4.75,4.25z M1.018,15c0.168-2.367,1.522-4.406,3.465-5.542C5.498,10.114,6.704,10.5,8,10.5v-1
	c-0.866,0-1.683-0.207-2.412-0.564C6.341,8.658,7.152,8.5,8,8.5c3.691,0,6.725,2.872,6.982,6.5H1.018z"/>
</svg>
