<?xml version="1.0" encoding="utf-8"?>
<!-- Generator: Adobe Illustrator 16.0.3, SVG Export Plug-In . SVG Version: 6.00 Build 0)  -->
<!DOCTYPE svg PUBLIC "-//W3C//DTD SVG 1.1//EN" "http://www.w3.org/Graphics/SVG/1.1/DTD/svg11.dtd">
<svg version="1.1" id="Capa_1" xmlns="http://www.w3.org/2000/svg" xmlns:xlink="http://www.w3.org/1999/xlink" x="0px" y="0px"
	 width="16px" height="16px" viewBox="0 0 16 16" enable-background="new 0 0 16 16" xml:space="preserve">
<g>
	<path fill="#1D1D1B" d="M7.854,7.307l3.1-3.1V6h1V3c0-0.275-0.224-0.5-0.5-0.5H8.452v1h1.794l-3.1,3.1L7.854,7.307z"/>
	<rect x="6" y="10" fill="#1D1D1B" width="6" height="1"/>
	<rect x="4" y="10" fill="#1D1D1B" width="1" height="1"/>
	<rect x="6" y="12" fill="#1D1D1B" width="6" height="1"/>
	<rect x="4" y="12" fill="#1D1D1B" width="1" height="1"/>
	<path fill="#1D1D1B" d="M14,0H2C1.724,0,1.5,0.223,1.5,0.5v15C1.5,15.775,1.724,16,2,16h12c0.276,0,0.5-0.225,0.5-0.5v-15
		C14.5,0.223,14.276,0,14,0z M13.5,15h-11V1h11V15z"/>
</g>
</svg>
