<?xml version="1.0" encoding="utf-8"?>
<!-- Generator: Adobe Illustrator 22.0.1, SVG Export Plug-In . SVG Version: 6.00 Build 0)  -->
<svg version="1.1" id="Capa_1" xmlns="http://www.w3.org/2000/svg" xmlns:xlink="http://www.w3.org/1999/xlink" x="0px" y="0px"
	 viewBox="0 0 16 16" enable-background="new 0 0 16 16" xml:space="preserve">
<g>
	<path fill="#1D1D1B" d="M15.5,2.559H2.875V0.5c0-0.276-0.224-0.5-0.5-0.5H0v1h1.875v2.059v7.5c0,0.142,0.06,0.276,0.165,0.371
		c0.092,0.083,0.212,0.129,0.335,0.129c0.017,0,0.033-0.001,0.05-0.003l13.125-1.32C15.806,9.71,16,9.495,16,9.238v-6.18
		C16,2.782,15.776,2.559,15.5,2.559z M15,8.786l-12.125,1.22V3.559H15V8.786z"/>
	<path fill="#1D1D1B" d="M3.781,12.188c-1.051,0-1.906,0.855-1.906,1.906S2.73,16,3.781,16s1.906-0.855,1.906-1.906
		S4.832,12.188,3.781,12.188z M3.781,15c-0.5,0-0.906-0.406-0.906-0.906s0.406-0.906,0.906-0.906s0.906,0.406,0.906,0.906
		S4.281,15,3.781,15z"/>
	<path fill="#1D1D1B" d="M12.688,12.188c-1.051,0-1.906,0.855-1.906,1.906S11.637,16,12.688,16s1.906-0.855,1.906-1.906
		S13.738,12.188,12.688,12.188z M12.688,15c-0.5,0-0.906-0.406-0.906-0.906s0.406-0.906,0.906-0.906s0.906,0.406,0.906,0.906
		S13.188,15,12.688,15z"/>
</g>
</svg>
