<?xml version="1.0" encoding="utf-8"?>
<!-- Generator: Adobe Illustrator 16.0.3, SVG Export Plug-In . SVG Version: 6.00 Build 0)  -->
<!DOCTYPE svg PUBLIC "-//W3C//DTD SVG 1.1//EN" "http://www.w3.org/Graphics/SVG/1.1/DTD/svg11.dtd">
<svg version="1.1" id="Capa_1" xmlns="http://www.w3.org/2000/svg" xmlns:xlink="http://www.w3.org/1999/xlink" x="0px" y="0px"
	 width="16px" height="16px" viewBox="0 0 16 16" enable-background="new 0 0 16 16" xml:space="preserve">
<path fill="#1D1D1B" d="M15.854,7.646l-7.5-7.5c-0.195-0.195-0.512-0.195-0.707,0l-7.5,7.5C0.053,7.74,0,7.867,0,8v7.5
	C0,15.776,0.224,16,0.5,16h5.17v-1H1V8.207l7-7l7,7V15h-4.17v-3.505c0-1.561-1.27-2.83-2.83-2.83s-2.83,1.27-2.83,2.83h1
	c0-1.01,0.82-1.83,1.83-1.83s1.83,0.82,1.83,1.83V15.5c0,0.276,0.224,0.5,0.5,0.5h5.17c0.276,0,0.5-0.224,0.5-0.5V8
	C16,7.867,15.947,7.74,15.854,7.646z"/>
</svg>
