<?xml version="1.0" encoding="utf-8"?>
<!-- Generator: Adobe Illustrator 16.0.3, SVG Export Plug-In . SVG Version: 6.00 Build 0)  -->
<!DOCTYPE svg PUBLIC "-//W3C//DTD SVG 1.1//EN" "http://www.w3.org/Graphics/SVG/1.1/DTD/svg11.dtd">
<svg version="1.1" id="Capa_1" xmlns="http://www.w3.org/2000/svg" xmlns:xlink="http://www.w3.org/1999/xlink" x="0px" y="0px"
	 width="16px" height="16px" viewBox="0 0 16 16" enable-background="new 0 0 16 16" xml:space="preserve">
<g>
	<path fill="#1D1D1B" d="M15.5,7.577h-1v-7.5h-1v7.5h-11v-7.5h-1v7.5h-1c-0.276,0-0.5,0.224-0.5,0.5v7.5c0,0.275,0.224,0.5,0.5,0.5
		h15c0.276,0,0.5-0.225,0.5-0.5v-7.5C16,7.801,15.776,7.577,15.5,7.577z M15,15.077H1v-6.5h14V15.077z"/>
	<rect x="2" y="11.327" fill="#1D1D1B" width="6.375" height="1"/>
	<rect x="9.313" y="11.327" fill="#1D1D1B" width="0.938" height="1"/>
	<rect x="11.188" y="11.327" fill="#1D1D1B" width="0.938" height="1"/>
	<rect x="13.063" y="11.327" fill="#1D1D1B" width="0.938" height="1"/>
	<path fill="#1D1D1B" d="M11.646,2.431l0.707-0.707c-2.4-2.4-6.307-2.4-8.707,0l0.707,0.707C6.364,0.42,9.636,0.42,11.646,2.431z"/>
	<path fill="#1D1D1B" d="M5.667,3.744l0.707,0.707c0.896-0.896,2.355-0.896,3.252,0l0.707-0.707
		C9.047,2.459,6.953,2.457,5.667,3.744z"/>
</g>
</svg>
