<?xml version="1.0" encoding="utf-8"?>
<!-- Generator: Adobe Illustrator 16.0.3, SVG Export Plug-In . SVG Version: 6.00 Build 0)  -->
<!DOCTYPE svg PUBLIC "-//W3C//DTD SVG 1.1//EN" "http://www.w3.org/Graphics/SVG/1.1/DTD/svg11.dtd">
<svg version="1.1" id="Capa_1" xmlns="http://www.w3.org/2000/svg" xmlns:xlink="http://www.w3.org/1999/xlink" x="0px" y="0px"
	 width="16px" height="16px" viewBox="0 0 16 16" enable-background="new 0 0 16 16" xml:space="preserve">
<g>
	<rect x="3.782" y="9.375" fill="#1D1D1B" width="0.938" height="1"/>
	<rect x="5.656" y="9.375" fill="#1D1D1B" width="0.938" height="1"/>
	<rect x="3.782" y="7.5" fill="#1D1D1B" width="0.938" height="1"/>
	<rect x="5.656" y="7.5" fill="#1D1D1B" width="0.938" height="1"/>
	<path fill="#1D1D1B" d="M15.5,7.5h-7v-7C8.5,0.223,8.276,0,8,0H2.375c-0.276,0-0.5,0.223-0.5,0.5v7H0.5C0.224,7.5,0,7.723,0,8v7.5
		C0,15.775,0.224,16,0.5,16h15c0.276,0,0.5-0.225,0.5-0.5V8C16,7.723,15.776,7.5,15.5,7.5z M2.875,6.623H7.5v6.502H2.875V6.623z
		 M7.5,5.623H2.875V2.875H7.5V5.623z M7.5,1v0.875H2.875V1H7.5z M15,15H1V8.5h0.875v5.125c0,0.275,0.224,0.5,0.5,0.5H8
		c0.276,0,0.5-0.225,0.5-0.5V8.5H15V15z"/>
	<rect x="3.782" y="11.25" fill="#1D1D1B" width="0.938" height="1"/>
	<rect x="5.656" y="11.25" fill="#1D1D1B" width="0.938" height="1"/>
	<rect x="9.875" y="11.25" fill="#1D1D1B" width="3.75" height="1"/>
	<rect x="9.875" y="9.375" fill="#1D1D1B" width="3.75" height="1"/>
</g>
</svg>
