<?xml version="1.0" encoding="utf-8"?>
<!-- Generator: Adobe Illustrator 16.0.3, SVG Export Plug-In . SVG Version: 6.00 Build 0)  -->
<!DOCTYPE svg PUBLIC "-//W3C//DTD SVG 1.1//EN" "http://www.w3.org/Graphics/SVG/1.1/DTD/svg11.dtd">
<svg version="1.1" id="Capa_1" xmlns="http://www.w3.org/2000/svg" xmlns:xlink="http://www.w3.org/1999/xlink" x="0px" y="0px"
	 width="16px" height="16px" viewBox="0 0 16 16" enable-background="new 0 0 16 16" xml:space="preserve">
<path fill="#1D1D1B" d="M10.267,7.832c1.188-0.754,1.983-2.073,1.983-3.581C12.25,1.907,10.344,0,8,0S3.75,1.907,3.75,4.251
	c0,1.508,0.795,2.827,1.983,3.581C2.423,8.813,0,11.876,0,15.5C0,15.776,0.224,16,0.5,16h15c0.276,0,0.5-0.224,0.5-0.5
	C16,11.876,13.577,8.813,10.267,7.832z M4.75,4.251C4.75,2.458,6.208,1,8,1s3.25,1.458,3.25,3.251C11.25,6.042,9.792,7.5,8,7.5
	S4.75,6.042,4.75,4.251z M1.018,15C1.275,11.372,4.309,8.5,8,8.5s6.725,2.872,6.982,6.5H1.018z"/>
</svg>
