<?xml version="1.0" encoding="utf-8"?>
<!-- Generator: Adobe Illustrator 16.0.3, SVG Export Plug-In . SVG Version: 6.00 Build 0)  -->
<!DOCTYPE svg PUBLIC "-//W3C//DTD SVG 1.1//EN" "http://www.w3.org/Graphics/SVG/1.1/DTD/svg11.dtd">
<svg version="1.1" id="Capa_1" xmlns="http://www.w3.org/2000/svg" xmlns:xlink="http://www.w3.org/1999/xlink" x="0px" y="0px"
	 width="16px" height="16px" viewBox="0 0 16 16" enable-background="new 0 0 16 16" xml:space="preserve">
<g>
	<g>
		<g>
			<path fill="#1D1D1B" d="M15.5,9H2.502c-0.276,0-0.5-0.224-0.5-0.5v-8c0-0.276,0.224-0.5,0.5-0.5H15.5C15.776,0,16,0.224,16,0.5v8
				C16,8.776,15.776,9,15.5,9z M3.002,8H15V1H3.002V8z"/>
		</g>
		<g>
			<rect y="2.5" fill="#1D1D1B" width="1" height="4"/>
		</g>
		<g>
			<rect x="5.001" y="10" fill="#1D1D1B" width="7.999" height="1"/>
		</g>
		<g>
			<rect x="15" y="12" fill="#1D1D1B" width="1" height="4"/>
		</g>
		<g>
			<path fill="#1D1D1B" d="M15.5,14.5h-3.001c-0.133,0-0.26-0.053-0.354-0.146l-3.498-3.5l0.707-0.707l3.352,3.354H15.5V14.5z"/>
		</g>
		<g>
			<rect x="12.001" y="2.5" fill="#1D1D1B" width="0.999" height="1"/>
		</g>
	</g>
</g>
</svg>
