<?xml version="1.0" encoding="utf-8"?>
<!-- Generator: Adobe Illustrator 21.1.0, SVG Export Plug-In . SVG Version: 6.00 Build 0)  -->
<svg version="1.1" id="Capa_1" xmlns="http://www.w3.org/2000/svg" xmlns:xlink="http://www.w3.org/1999/xlink" x="0px" y="0px"
	 viewBox="0 0 16 16" enable-background="new 0 0 16 16" xml:space="preserve">
<g>
	<g>
		<path fill="#1D1D1B" d="M8,16c-4.486,0-8-1.867-8-4.25h1C1,13.512,4.206,15,8,15s7-1.488,7-3.25h1C16,14.133,12.486,16,8,16z"/>
	</g>
	<g>
		<path fill="#1D1D1B" d="M8,12.25c-4.486,0-8-1.867-8-4.25h1c0,1.762,3.206,3.25,7,3.25S15,9.762,15,8h1
			C16,10.383,12.486,12.25,8,12.25z"/>
	</g>
	<g>
		<rect x="15" y="4.25" fill="#1D1D1B" width="1" height="7.5"/>
	</g>
	<g>
		<rect y="4.25" fill="#1D1D1B" width="1" height="7.5"/>
	</g>
	<g>
		<path fill="#1D1D1B" d="M8,8.5c-4.486,0-8-1.867-8-4.25S3.514,0,8,0s8,1.867,8,4.25S12.486,8.5,8,8.5z M8,1
			C4.206,1,1,2.488,1,4.25S4.206,7.5,8,7.5s7-1.488,7-3.25S11.794,1,8,1z"/>
	</g>
</g>
</svg>
