<?xml version="1.0" encoding="utf-8"?>
<!-- Generator: Adobe Illustrator 16.0.3, SVG Export Plug-In . SVG Version: 6.00 Build 0)  -->
<!DOCTYPE svg PUBLIC "-//W3C//DTD SVG 1.1//EN" "http://www.w3.org/Graphics/SVG/1.1/DTD/svg11.dtd">
<svg version="1.1" id="Capa_1" xmlns="http://www.w3.org/2000/svg" xmlns:xlink="http://www.w3.org/1999/xlink" x="0px" y="0px"
	 width="16px" height="14px" viewBox="0 0 16 14" enable-background="new 0 0 16 14" xml:space="preserve">
<g>
	<g>
		<g>
			<path fill="#1D1D1B" d="M6.506,11.998c-2.204,0-3.998-1.794-3.998-3.998s1.794-3.998,3.998-3.998S10.504,5.796,10.504,8
				S8.71,11.998,6.506,11.998z M6.506,5.002C4.853,5.002,3.508,6.347,3.508,8s1.345,2.998,2.998,2.998S9.504,9.653,9.504,8
				S8.159,5.002,6.506,5.002z"/>
		</g>
		<g>
			<path fill="#1D1D1B" d="M15.5,14h-15C0.224,14,0,13.776,0,13.5V2.502c0-0.276,0.224-0.5,0.5-0.5h2.301l1.855-1.855
				C4.75,0.053,4.877,0,5.01,0H8c0.133,0,0.26,0.053,0.354,0.146l1.857,1.855H15.5c0.276,0,0.5,0.224,0.5,0.5V13.5
				C16,13.776,15.776,14,15.5,14z M1,13h14V3.002h-4.996c-0.133,0-0.26-0.053-0.354-0.146L7.793,1H5.217L3.361,2.855
				C3.268,2.949,3.141,3.002,3.008,3.002H1V13z"/>
		</g>
	</g>
</g>
</svg>
