<?xml version="1.0" encoding="utf-8"?>
<!-- Generator: Adobe Illustrator 16.0.3, SVG Export Plug-In . SVG Version: 6.00 Build 0)  -->
<!DOCTYPE svg PUBLIC "-//W3C//DTD SVG 1.1//EN" "http://www.w3.org/Graphics/SVG/1.1/DTD/svg11.dtd">
<svg version="1.1" id="Capa_1" xmlns="http://www.w3.org/2000/svg" xmlns:xlink="http://www.w3.org/1999/xlink" x="0px" y="0px"
	 width="16px" height="16px" viewBox="0 0 16 16" enable-background="new 0 0 16 16" xml:space="preserve">
<g>
	<g>
		<g>
			<path fill="#1D1D1B" d="M12.498,5.5h-9c-0.276,0-0.5-0.224-0.5-0.5V0.5c0-0.276,0.224-0.5,0.5-0.5h9c0.276,0,0.5,0.224,0.5,0.5V5
				C12.998,5.276,12.774,5.5,12.498,5.5z M3.998,4.5h8V1h-8V4.5z"/>
		</g>
		<g>
			<path fill="#1D1D1B" d="M15.5,12h-3.002v-1H15V5.5H1V11h2.498v1H0.5C0.224,12,0,11.776,0,11.5V5c0-0.276,0.224-0.5,0.5-0.5h15
				C15.776,4.5,16,4.724,16,5v6.5C16,11.776,15.776,12,15.5,12z"/>
		</g>
		<g>
			<path fill="#1D1D1B" d="M12.498,16h-9c-0.276,0-0.5-0.224-0.5-0.5V9.498c0-0.276,0.224-0.5,0.5-0.5h9c0.276,0,0.5,0.224,0.5,0.5
				V15.5C12.998,15.776,12.774,16,12.498,16z M3.998,15h8V9.998h-8V15z"/>
		</g>
		<g>
			<rect x="1.998" y="8.998" fill="#1D1D1B" width="12" height="1"/>
		</g>
	</g>
</g>
</svg>
