<?xml version="1.0" encoding="utf-8"?>
<!-- Generator: Adobe Illustrator 16.0.3, SVG Export Plug-In . SVG Version: 6.00 Build 0)  -->
<!DOCTYPE svg PUBLIC "-//W3C//DTD SVG 1.1//EN" "http://www.w3.org/Graphics/SVG/1.1/DTD/svg11.dtd">
<svg version="1.1" id="Capa_1" xmlns="http://www.w3.org/2000/svg" xmlns:xlink="http://www.w3.org/1999/xlink" x="0px" y="0px"
	 width="16px" height="16px" viewBox="0 0 16 16" enable-background="new 0 0 16 16" xml:space="preserve">
<g>
	<g>
		<g>
			<path fill="#1D1D1B" d="M15.5,16h-15C0.224,16,0,15.776,0,15.5v-8C0,7.224,0.224,7,0.5,7h15C15.776,7,16,7.224,16,7.5v8
				C16,15.776,15.776,16,15.5,16z M1,15h14V8H1V15z"/>
		</g>
		<g>
			<rect x="3.003" y="11" fill="#1D1D1B" width="1" height="1"/>
		</g>
		<g>
			<rect x="5.005" y="11" fill="#1D1D1B" width="1" height="1"/>
		</g>
		<g>
			<rect x="9.995" y="11" fill="#1D1D1B" width="1" height="1"/>
		</g>
		<g>
			<rect x="11.997" y="11" fill="#1D1D1B" width="1" height="1"/>
		</g>
		<g>
			<rect x="4.004" y="9.999" fill="#1D1D1B" width="1" height="1"/>
		</g>
		<g>
			<rect x="4.004" y="12" fill="#1D1D1B" width="1" height="1"/>
		</g>
		<g>
			<path fill="#1D1D1B" d="M5.003,6h-1c0-1.379,1.121-2.5,2.5-2.5v1C5.676,4.5,5.003,5.173,5.003,6z"/>
		</g>
		<g>
			<path fill="#1D1D1B" d="M9.996,4.5v-1c0.827,0,1.5-0.673,1.5-1.5h1C12.496,3.379,11.375,4.5,9.996,4.5z"/>
		</g>
		<g>
			<rect x="6.503" y="3.5" fill="#1D1D1B" width="3.493" height="1"/>
		</g>
		<g>
			<rect x="4.003" y="6" fill="#1D1D1B" width="1" height="1.5"/>
		</g>
		<g>
			<rect x="11.498" fill="#1D1D1B" width="1" height="2"/>
		</g>
	</g>
</g>
</svg>
