<?xml version="1.0" encoding="utf-8"?>
<!-- Generator: Adobe Illustrator 16.0.3, SVG Export Plug-In . SVG Version: 6.00 Build 0)  -->
<!DOCTYPE svg PUBLIC "-//W3C//DTD SVG 1.1//EN" "http://www.w3.org/Graphics/SVG/1.1/DTD/svg11.dtd">
<svg version="1.1" id="Capa_1" xmlns="http://www.w3.org/2000/svg" xmlns:xlink="http://www.w3.org/1999/xlink" x="0px" y="0px"
	 width="16px" height="16px" viewBox="0 0 16 16" enable-background="new 0 0 16 16" xml:space="preserve">
<g>
	<g>
		<g>
			<path fill="#1D1D1B" d="M15.5,16h-15C0.224,16,0,15.776,0,15.5v-15C0,0.224,0.224,0,0.5,0h15C15.776,0,16,0.224,16,0.5v15
				C16,15.776,15.776,16,15.5,16z M1,15h14V1H1V15z"/>
		</g>
		<g>
			<rect x="0.5" y="5" fill="#1D1D1B" width="15" height="1"/>
		</g>
		<g>
			<rect x="0.5" y="10" fill="#1D1D1B" width="15" height="1"/>
		</g>
		<g>
			<rect x="11.496" y="12.498" fill="#1D1D1B" width="2" height="1"/>
		</g>
		<g>
			<rect x="11.496" y="7.5" fill="#1D1D1B" width="2" height="1"/>
		</g>
		<g>
			<rect x="11.496" y="2.501" fill="#1D1D1B" width="2" height="1"/>
		</g>
	</g>
</g>
</svg>
