<?xml version="1.0" encoding="utf-8"?>
<!-- Generator: Adobe Illustrator 21.1.0, SVG Export Plug-In . SVG Version: 6.00 Build 0)  -->
<svg version="1.1" id="Capa_1" xmlns="http://www.w3.org/2000/svg" xmlns:xlink="http://www.w3.org/1999/xlink" x="0px" y="0px"
	 viewBox="0 0 16 16" enable-background="new 0 0 16 16" xml:space="preserve">
<g>
	<g>
		<g>
			<path fill="#1D1D1B" d="M14,16H2c-0.276,0-0.5-0.224-0.5-0.5v-15C1.5,0.224,1.724,0,2,0h12c0.276,0,0.5,0.224,0.5,0.5v15
				C14.5,15.776,14.276,16,14,16z M2.5,15h11V1h-11V15z"/>
		</g>
		<g>
			<rect x="7.5" y="12.998" fill="#1D1D1B" width="1" height="1"/>
		</g>
	</g>
	<g>
		<g>
			<path fill="#1D1D1B" d="M10.91,6.701h-1V5.894c0-0.276,0.224-0.5,0.5-0.5c0.699,0,1.268-0.568,1.268-1.268
				c0-0.699-0.568-1.268-1.268-1.268c-0.699,0-1.268,0.568-1.268,1.268h-1c0-1.25,1.018-2.268,2.268-2.268s2.268,1.017,2.268,2.268
				c0,1.079-0.757,1.983-1.768,2.212V6.701z"/>
		</g>
		<g>
			<rect x="9.909" y="7.701" fill="#1D1D1B" width="1" height="1"/>
		</g>
	</g>
</g>
</svg>
