<?xml version="1.0" encoding="utf-8"?>
<!-- Generator: Adobe Illustrator 21.1.0, SVG Export Plug-In . SVG Version: 6.00 Build 0)  -->
<svg version="1.1" id="Capa_1" xmlns="http://www.w3.org/2000/svg" xmlns:xlink="http://www.w3.org/1999/xlink" x="0px" y="0px"
	 viewBox="0 0 16.002 16" enable-background="new 0 0 16.002 16" xml:space="preserve">
<g>
	<g>
		<g>
			<path fill="#1D1D1B" d="M14.001,16h-12c-0.276,0-0.5-0.224-0.5-0.5v-15c0-0.276,0.224-0.5,0.5-0.5h12c0.276,0,0.5,0.224,0.5,0.5
				v15C14.501,15.776,14.277,16,14.001,16z M2.501,15h11V1h-11V15z"/>
		</g>
		<g>
			<rect x="7.501" y="12.998" fill="#1D1D1B" width="1" height="1"/>
		</g>
	</g>
	<g>
		<g>
			
				<rect x="8.058" y="3.481" transform="matrix(0.7072 -0.7071 0.7071 0.7072 0.2773 8.6305)" fill="#1D1D1B" width="4.999" height="1"/>
		</g>
		<g>
			
				<rect x="10.058" y="1.481" transform="matrix(0.7071 -0.7071 0.7071 0.7071 0.2776 8.631)" fill="#1D1D1B" width="1" height="4.999"/>
		</g>
	</g>
</g>
</svg>
