<?xml version="1.0" encoding="utf-8"?>
<!-- Generator: Adobe Illustrator 16.0.3, SVG Export Plug-In . SVG Version: 6.00 Build 0)  -->
<!DOCTYPE svg PUBLIC "-//W3C//DTD SVG 1.1//EN" "http://www.w3.org/Graphics/SVG/1.1/DTD/svg11.dtd">
<svg version="1.1" id="Capa_1" xmlns="http://www.w3.org/2000/svg" xmlns:xlink="http://www.w3.org/1999/xlink" x="0px" y="0px"
	 width="16px" height="16px" viewBox="0 0 16 16" enable-background="new 0 0 16 16" xml:space="preserve">
<g>
	<rect x="2.375" y="9.375" fill="#1D1D1B" width="6.25" height="1"/>
	<path fill="#1D1D1B" d="M14.563,0c-0.793,0-1.438,0.646-1.438,1.438v12.188c0,0.758-0.617,1.375-1.375,1.375H7.376
		c-0.759,0-1.375-0.617-1.375-1.375V12.85C8.8,12.596,11,10.238,11,7.375V2c0-0.276-0.224-0.5-0.5-0.5H8.625v1H10v4.875
		c0,2.481-2.019,4.5-4.5,4.5S1,9.856,1,7.375V2.5h1.375v-1H0.5C0.224,1.5,0,1.724,0,2v5.375c0,2.864,2.201,5.222,5.001,5.475v0.775
		C5.001,14.934,6.066,16,7.376,16h4.374c1.31,0,2.375-1.066,2.375-2.375V2.8c0.139,0.045,0.284,0.075,0.438,0.075
		C15.355,2.875,16,2.229,16,1.438S15.355,0,14.563,0z M14.563,1.875c-0.241,0-0.438-0.196-0.438-0.438S14.321,1,14.563,1
		S15,1.196,15,1.438S14.804,1.875,14.563,1.875z"/>
</g>
</svg>
