<?xml version="1.0" encoding="utf-8"?>
<!-- Generator: Adobe Illustrator 16.0.3, SVG Export Plug-In . SVG Version: 6.00 Build 0)  -->
<!DOCTYPE svg PUBLIC "-//W3C//DTD SVG 1.1//EN" "http://www.w3.org/Graphics/SVG/1.1/DTD/svg11.dtd">
<svg version="1.1" id="Capa_1" xmlns="http://www.w3.org/2000/svg" xmlns:xlink="http://www.w3.org/1999/xlink" x="0px" y="0px"
	 width="16px" height="16px" viewBox="0 0 16 16" enable-background="new 0 0 16 16" xml:space="preserve">
<path fill="#1D1D1B" d="M15.5,5.625h-1.668L8.354,0.147C8.26,0.053,8.133,0,8,0H0.5C0.224,0,0,0.224,0,0.5V15.5
	C0,15.777,0.224,16,0.5,16H8c0.133,0,0.26-0.053,0.354-0.146l5.479-5.478H15.5c0.276,0,0.5-0.224,0.5-0.5v-3.75
	C16,5.849,15.776,5.625,15.5,5.625z M15,9.375h-1.375c-0.133,0-0.26,0.053-0.354,0.146L7.793,15H1V8.5h6.5v2.313
	c0,0.202,0.121,0.385,0.309,0.462C7.871,11.301,7.936,11.313,8,11.313c0.13,0,0.258-0.051,0.354-0.146l2.813-2.813
	c0.195-0.195,0.195-0.512,0-0.707L8.354,4.834C8.211,4.692,7.997,4.649,7.809,4.726C7.621,4.803,7.5,4.986,7.5,5.188V7.5H1V1h6.793
	l5.479,5.479c0.094,0.094,0.221,0.146,0.354,0.146H15V9.375z M8.5,9.606V6.395L10.105,8L8.5,9.606z"/>
</svg>
