<?xml version="1.0" encoding="utf-8"?>
<!-- Generator: Adobe Illustrator 16.0.3, SVG Export Plug-In . SVG Version: 6.00 Build 0)  -->
<!DOCTYPE svg PUBLIC "-//W3C//DTD SVG 1.1//EN" "http://www.w3.org/Graphics/SVG/1.1/DTD/svg11.dtd">
<svg version="1.1" id="Capa_1" xmlns="http://www.w3.org/2000/svg" xmlns:xlink="http://www.w3.org/1999/xlink" x="0px" y="0px"
	 width="16px" height="16px" viewBox="0 0 16 16" enable-background="new 0 0 16 16" xml:space="preserve">
<path fill="#1D1D1B" d="M8,0C3.589,0,0,3.589,0,8S3.589,16,8,16S16,12.412,16,8S12.411,0,8,0z M14.314,5h-3.13
	c-0.387-1.387-1.046-2.71-1.98-3.889C11.467,1.506,13.354,2.989,14.314,5z M15,8c0,0.695-0.105,1.366-0.295,2h-3.289
	c0.24-1.322,0.24-2.678,0-4h3.289C14.895,6.635,15,7.305,15,8z M5.6,10c-0.265-1.319-0.265-2.681,0-4H10.4
	c0.265,1.319,0.265,2.681,0,4H5.6z M10.144,11C9.724,12.359,9.005,13.64,8,14.755C6.995,13.64,6.276,12.359,5.856,11H10.144z M1,8
	c0-0.695,0.105-1.366,0.295-2h3.289c-0.24,1.322-0.24,2.678,0,4H1.295C1.105,9.366,1,8.696,1,8z M5.856,5
	C6.276,3.642,6.995,2.36,8,1.245C9.005,2.36,9.724,3.642,10.144,5H5.856z M6.796,1.112C5.861,2.29,5.202,3.614,4.815,5h-3.13
	C2.646,2.989,4.533,1.506,6.796,1.112z M1.686,11h3.13c0.387,1.386,1.046,2.71,1.979,3.888C4.533,14.494,2.646,13.012,1.686,11z
	 M9.205,14.888c0.934-1.178,1.593-2.501,1.979-3.888h3.13C13.354,13.012,11.467,14.494,9.205,14.888z"/>
</svg>
