<svg width="16" height="16" xmlns="http://www.w3.org/2000/svg">

 <g>
  <title>background</title>
  <rect fill="none" id="canvas_background" height="18" width="18" y="-1" x="-1"/>
 </g>
 <g>
  <title>Layer 1</title>
  <rect x="-0.075758" y="0" id="svg_1" width="16" height="16" fill="none"/>
  <path stroke="#000000" id="svg_2" stroke-miterlimit="10" stroke-linecap="round" fill="none" d="m3.75624,14.936394c-0.334651,0 -0.606251,-0.296265 -0.606251,-0.661307l0,-7.274374c0,-0.365041 0.271601,-0.661307 0.606251,-0.661307l8.487519,0c0.334651,0 0.606251,0.296265 0.606251,0.661307l0,7.274374c0,0.365041 -0.271601,0.661307 -0.606251,0.661307l-8.487519,0z"/>
  <path stroke="#000000" id="svg_3" stroke-miterlimit="10" stroke-linecap="round" fill="none" d="m14.895461,5.924257c0,-0.312942 0,-1.78332 0,-2.096262c0,-1.653951 -1.024965,-2.99466 -2.289401,-2.99466s-2.289401,1.340709 -2.289401,2.99466c0,0.312942 0,0.813623 0,2.096262"/>
  <path stroke="null" id="svg_4" d="m8.992426,10.142445c0,-0.522207 -0.444276,-0.945457 -0.992426,-0.945457s-0.992426,0.423249 -0.992426,0.945457c0,0.27891 0.129346,0.52725 0.330809,0.700268l0,0.875493c0,0.347928 0.296405,0.630305 0.661617,0.630305s0.661617,-0.282376 0.661617,-0.630305l0,-0.875493c0.201462,-0.173019 0.330809,-0.421359 0.330809,-0.700268z"/>
 </g>
</svg>