<?xml version="1.0" encoding="utf-8"?>
<!-- Generator: Adobe Illustrator 16.0.3, SVG Export Plug-In . SVG Version: 6.00 Build 0)  -->
<!DOCTYPE svg PUBLIC "-//W3C//DTD SVG 1.1//EN" "http://www.w3.org/Graphics/SVG/1.1/DTD/svg11.dtd">
<svg version="1.1" id="Capa_1" xmlns="http://www.w3.org/2000/svg" xmlns:xlink="http://www.w3.org/1999/xlink" x="0px" y="0px"
	 width="16px" height="16px" viewBox="0 0 16 16" enable-background="new 0 0 16 16" xml:space="preserve">
<g>
	<path fill="#1D1D1B" d="M15.5,7.5H13V0h-1v7.5H4.271V0h-1v7.5H0.5C0.224,7.5,0,7.724,0,8v7.5C0,15.775,0.224,16,0.5,16h15
		c0.276,0,0.5-0.225,0.5-0.5V8C16,7.724,15.776,7.5,15.5,7.5z M15,15H1V8.5h14V15z"/>
	<rect x="2" y="11.25" fill="#1D1D1B" width="6.375" height="1"/>
	<rect x="9.313" y="11.25" fill="#1D1D1B" width="0.938" height="1"/>
	<rect x="11.188" y="11.25" fill="#1D1D1B" width="0.938" height="1"/>
	<rect x="13.063" y="11.25" fill="#1D1D1B" width="0.938" height="1"/>
</g>
</svg>
