<?xml version="1.0" encoding="utf-8"?>
<!-- Generator: Adobe Illustrator 16.0.3, SVG Export Plug-In . SVG Version: 6.00 Build 0)  -->
<!DOCTYPE svg PUBLIC "-//W3C//DTD SVG 1.1//EN" "http://www.w3.org/Graphics/SVG/1.1/DTD/svg11.dtd">
<svg version="1.1" id="Capa_1" xmlns="http://www.w3.org/2000/svg" xmlns:xlink="http://www.w3.org/1999/xlink" x="0px" y="0px"
	 width="16px" height="16px" viewBox="0 0 16 16" enable-background="new 0 0 16 16" xml:space="preserve">
<g>
	<path fill="#1D1D1B" d="M0.146,3.252l0.707,0.707c3.941-3.939,10.352-3.939,14.293,0l0.707-0.707
		C11.523-1.078,4.477-1.078,0.146,3.252z"/>
	<path fill="#1D1D1B" d="M11.455,5.055l0.496-0.867C10.754,3.502,9.388,3.141,8,3.139c-2.127,0-4.127,0.83-5.633,2.336l0.707,0.707
		C4.391,4.863,6.141,4.139,8,4.139C9.213,4.141,10.408,4.457,11.455,5.055z"/>
	<path fill="#1D1D1B" d="M9.729,7.631l0.447-0.895C9.506,6.402,8.754,6.225,8,6.225c-1.303,0-2.528,0.508-3.451,1.432l0.707,0.707
		C6.415,7.203,8.279,6.906,9.729,7.631z"/>
	<path fill="#1D1D1B" d="M13.246,5.07l-4.351,6.355C8.619,11.313,8.317,11.248,8,11.248c-1.31,0-2.375,1.064-2.375,2.373
		c0,1.311,1.065,2.375,2.375,2.375s2.375-1.064,2.375-2.375c0-0.631-0.252-1.202-0.655-1.627l4.353-6.359L13.246,5.07z M8,14.996
		c-0.758,0-1.375-0.617-1.375-1.375S7.242,12.248,8,12.248s1.375,0.615,1.375,1.373S8.758,14.996,8,14.996z"/>
</g>
</svg>
