<?xml version="1.0" encoding="utf-8"?>
<!-- Generator: Adobe Illustrator 16.0.3, SVG Export Plug-In . SVG Version: 6.00 Build 0)  -->
<!DOCTYPE svg PUBLIC "-//W3C//DTD SVG 1.1//EN" "http://www.w3.org/Graphics/SVG/1.1/DTD/svg11.dtd">
<svg version="1.1" id="Capa_1" xmlns="http://www.w3.org/2000/svg" xmlns:xlink="http://www.w3.org/1999/xlink" x="0px" y="0px"
	 width="16px" height="16px" viewBox="0 0 16 16" enable-background="new 0 0 16 16" xml:space="preserve">
<g>
	<path fill="#1D1D1B" d="M15.5,7.575h-15C0.224,7.575,0,7.8,0,8.075v7.422c0,0.277,0.224,0.5,0.5,0.5h15c0.276,0,0.5-0.223,0.5-0.5
		V8.075C16,7.8,15.776,7.575,15.5,7.575z M15,14.997H1V8.575h14V14.997z"/>
	<rect x="2" y="11.286" fill="#1D1D1B" width="6.375" height="1"/>
	<rect x="9.313" y="11.286" fill="#1D1D1B" width="0.938" height="1"/>
	<rect x="11.188" y="11.286" fill="#1D1D1B" width="0.938" height="1"/>
	<rect x="13.063" y="11.286" fill="#1D1D1B" width="0.938" height="1"/>
	<path fill="#1D1D1B" d="M11.648,2.493l0.703-0.711c-2.399-2.373-6.304-2.373-8.703,0l0.703,0.711
		C6.363,0.503,9.637,0.503,11.648,2.493z"/>
	<path fill="#1D1D1B" d="M6.372,4.493c0.898-0.887,2.358-0.889,3.256,0l0.703-0.711c-1.285-1.271-3.376-1.271-4.662,0L6.372,4.493z"
		/>
</g>
</svg>
