<?xml version="1.0" encoding="utf-8"?>
<!-- Generator: Adobe Illustrator 22.0.1, SVG Export Plug-In . SVG Version: 6.00 Build 0)  -->
<svg version="1.1" id="Capa_1" xmlns="http://www.w3.org/2000/svg" xmlns:xlink="http://www.w3.org/1999/xlink" x="0px" y="0px"
	 viewBox="0 0 16 16" enable-background="new 0 0 16 16" xml:space="preserve">
<g>
	<path fill="#1D1D1B" d="M5.886,8.756c1.451,0,2.632-1.181,2.632-2.631c0-1.451-1.181-2.632-2.632-2.632
		c-1.45,0-2.631,1.181-2.631,2.632C3.255,7.575,4.436,8.756,5.886,8.756z M5.886,4.493c0.899,0,1.632,0.732,1.632,1.632
		S6.785,7.756,5.886,7.756S4.255,7.024,4.255,6.125S4.986,4.493,5.886,4.493z"/>
	<path fill="#1D1D1B" d="M15.5,0h-15C0.224,0,0,0.224,0,0.5v11.333c0,0.276,0.224,0.5,0.5,0.5h0.433C0.345,13.249,0,14.334,0,15.5
		C0,15.776,0.224,16,0.5,16h10.771c0.276,0,0.5-0.224,0.5-0.5c0-1.166-0.345-2.251-0.933-3.167H15.5c0.276,0,0.5-0.224,0.5-0.5V0.5
		C16,0.224,15.776,0,15.5,0z M1.025,15c0.251-2.46,2.335-4.386,4.86-4.386s4.609,1.926,4.86,4.386H1.025z M15,11.333h-4.408
		l2.195-5.007L11.87,5.924l-2.218,5.059C8.631,10.13,7.318,9.614,5.886,9.614c-1.619,0-3.087,0.657-4.152,1.719H1V1h14V11.333z"/>
</g>
</svg>
