<?xml version="1.0" encoding="utf-8"?>
<!-- Generator: Adobe Illustrator 16.0.3, SVG Export Plug-In . SVG Version: 6.00 Build 0)  -->
<!DOCTYPE svg PUBLIC "-//W3C//DTD SVG 1.1//EN" "http://www.w3.org/Graphics/SVG/1.1/DTD/svg11.dtd">
<svg version="1.1" id="Capa_1" xmlns="http://www.w3.org/2000/svg" xmlns:xlink="http://www.w3.org/1999/xlink" x="0px" y="0px"
	 width="16px" height="16px" viewBox="0 0 16 16" enable-background="new 0 0 16 16" xml:space="preserve">
<g>
	<path fill="#1D1D1B" d="M8.194,0.038C8.008-0.039,7.793,0.004,7.649,0.146L2.171,5.625H0.503c-0.276,0-0.5,0.224-0.5,0.5v3.75
		c0,0.276,0.224,0.5,0.5,0.5h1.668l5.479,5.479C7.745,15.949,7.873,16,8.003,16c0.064,0,0.129-0.012,0.191-0.038
		c0.188-0.077,0.309-0.26,0.309-0.462v-15C8.503,0.298,8.382,0.115,8.194,0.038z M7.503,14.293L2.731,9.521
		C2.638,9.428,2.511,9.375,2.378,9.375H1.003v-2.75h1.375c0.133,0,0.26-0.053,0.354-0.146l4.771-4.771V14.293z"/>
	<path fill="#1D1D1B" d="M13.525,2.021l-0.707,0.707c2.907,2.906,2.907,7.637,0,10.543l0.707,0.707
		C16.821,10.682,16.821,5.318,13.525,2.021z"/>
	<path fill="#1D1D1B" d="M10.206,5.341c1.467,1.466,1.467,3.853,0,5.318l0.707,0.707c1.855-1.856,1.855-4.876,0-6.732L10.206,5.341z
		"/>
</g>
</svg>
