<?xml version="1.0" encoding="utf-8"?>
<!-- Generator: Adobe Illustrator 16.0.3, SVG Export Plug-In . SVG Version: 6.00 Build 0)  -->
<!DOCTYPE svg PUBLIC "-//W3C//DTD SVG 1.1//EN" "http://www.w3.org/Graphics/SVG/1.1/DTD/svg11.dtd">
<svg version="1.1" id="Capa_1" xmlns="http://www.w3.org/2000/svg" xmlns:xlink="http://www.w3.org/1999/xlink" x="0px" y="0px"
	 width="16px" height="16px" viewBox="0 0 16 16" enable-background="new 0 0 16 16" xml:space="preserve">
<g>
	<path fill="#1D1D1B" d="M15.5,0.75h-15C0.224,0.75,0,0.974,0,1.25V12c0,0.276,0.224,0.5,0.5,0.5h15c0.276,0,0.5-0.224,0.5-0.5V1.25
		C16,0.974,15.776,0.75,15.5,0.75z M15,11.5H1V1.75h14V11.5z"/>
	<path fill="#1D1D1B" d="M5.999,9.104h4.002c0.276,0,0.5-0.224,0.5-0.5V4.646h-1v3.459H8.5V4.646h-1v3.459H6.499V4.646h-1v3.959
		C5.499,8.881,5.723,9.104,5.999,9.104z"/>
	<rect x="2" y="14.25" fill="#1D1D1B" width="12" height="1"/>
</g>
</svg>
