<?xml version="1.0" encoding="utf-8"?>
<!-- Generator: Adobe Illustrator 16.0.3, SVG Export Plug-In . SVG Version: 6.00 Build 0)  -->
<!DOCTYPE svg PUBLIC "-//W3C//DTD SVG 1.1//EN" "http://www.w3.org/Graphics/SVG/1.1/DTD/svg11.dtd">
<svg version="1.1" id="Capa_1" xmlns="http://www.w3.org/2000/svg" xmlns:xlink="http://www.w3.org/1999/xlink" x="0px" y="0px"
	 width="16px" height="16px" viewBox="0 0 16 16" enable-background="new 0 0 16 16" xml:space="preserve">
<g>
	<path fill="#1D1D1B" d="M8.001,6.561c-2.603,0-4.721,2.117-4.721,4.719C3.28,13.883,5.398,16,8.001,16s4.719-2.117,4.719-4.721
		C12.72,8.678,10.604,6.561,8.001,6.561z M8.001,7.561c0.845,0,1.615,0.294,2.24,0.771l-5.189,5.19
		c-0.477-0.626-0.771-1.396-0.771-2.242C4.28,9.229,5.949,7.561,8.001,7.561z M8.001,15c-0.846,0-1.617-0.295-2.242-0.771l5.19-5.19
		c0.477,0.625,0.771,1.396,0.771,2.241C11.72,13.33,10.051,15,8.001,15z"/>
	<path fill="#1D1D1B" d="M11.397,2.408l0.707-0.707C11.008,0.604,9.55,0,8,0C6.451,0,4.994,0.604,3.896,1.701l0.707,0.707
		C6.477,0.535,9.524,0.535,11.397,2.408z"/>
	<path fill="#1D1D1B" d="M5.791,3.596l0.707,0.707C6.9,3.9,7.434,3.68,8,3.68c0.567,0,1.101,0.221,1.503,0.623l0.707-0.707
		C9.619,3.004,8.834,2.68,8,2.68C7.165,2.68,6.381,3.006,5.791,3.596z"/>
</g>
</svg>
